<?xml version="1.0" encoding="iso-8859-1"?>
<!-- Uploaded to: SVG Repo, www.svgrepo.com, Generator: SVG Repo Mixer Tools -->
<svg height="800px" width="800px" version="1.1" id="Layer_1" xmlns="http://www.w3.org/2000/svg" xmlns:xlink="http://www.w3.org/1999/xlink" 
	 viewBox="0 0 473.935 473.935" xml:space="preserve">
<circle style="fill:#49A0AE;" cx="236.967" cy="236.967" r="236.967"/>
<g>
	<path style="fill:#D7AF8F;" d="M349.071,246.958c-8.49,25.691-43.453,48.669-75.12,31.165c-0.513,9.744-0.471,18.993,2.398,26.372
		c1.669,4.288,5.354,6.481,4.797,10.387c-14.17-3.738-8.247-22.836-10.387-37.56c-1.456-10.002-13.781-14.926-11.188-26.372
		c-7.285,0.973-14.226,2.29-21.579,3.195c0.763,10.361,11.914,14.252,15.981,23.173c3.903,8.561,5.04,17.534,9.59,25.571
		c4.374,7.742,10.541,11.835,14.383,19.981c-18.585-6.769-19.843-28.441-27.97-44.752c-4.569-9.167-15.02-12.797-15.981-23.173
		c-15.031,0.109-23.97-5.863-26.372-18.38c-6.084-4.572-14.96-6.354-13.586-18.38c-6.709-2.38-10.563-2.223-15.184,1.598
		c-15.962-2.26-31.981,2.432-40.756-7.992c-1.239-1.471-1.239-4.172-2.398-6.395c-3.693-7.057-10.065-14.417-11.188-21.579
		c-1.71-10.896,1.703-22.518,7.188-31.962c-0.674-9.736,4.108-14.009,8.793-18.383c4.21-13.643,11.933-23.764,22.376-31.165
		c2.5,0.165,5.867-0.543,7.192,0.797c6.533-6.784,12.846-13.792,26.372-13.583c10.406-9.833,26.215-8.804,40.756-8.793
		c3.914,0.004,7.375-1.804,11.188-1.601c2.054,0.112,4.254,2.223,6.391,2.398c3.27,0.277,7.121-2.556,10.391-2.398
		c1.867,0.09,5.684,1.893,7.992,2.398c3.869,0.849,7.02,0.872,9.59,1.601c2.372,0.67,4.052,3.192,6.395,3.992
		c0.977,0.34,3.207-0.947,3.996-0.797c7.364,1.373,15.716,8.007,20.778,11.985c2.204-0.95,2.806-2.264,5.594-0.801
		c10.623,3.794,17.377,13.68,25.571,21.579c10.642,10.26,23.229,24.086,22.376,44.756c7.667,3.91,10.481,22.309,5.594,31.165
		c3.424,24.022-5.553,42.331-18.383,52.744C352.072,248.219,350.95,247.212,349.071,246.958z M243.583,83.131
		c2.185,0.685,11.484,12.307,2.398,15.184c-1.579-1.811,0.849-4.464,0-7.992c-9.321-11.465-33.197-6.241-44.752,0
		c-0.221,1.403,2.249,3.985,0,4.797c-8.187-5.53-21.399,2.301-27.173,8.789c-2.316,2.791,0.445,5.732-3.195,7.195
		c-2.829-0.636-0.943-5.979-4.793-5.594c-11.76,5.553-17.403,17.227-22.376,29.568c2.668-0.804,2.619,1.108,2.398,3.195
		c-9.8-1.463-11.835,8.838-9.59,16.782c-12.105,6.885-10.327,38.331,1.598,46.353c1.789-3.858,8.093-10.649,12.786-6.395
		c-5.399,2.589-11.566,4.419-11.188,12.789c8.325,9.175,35.023,11.24,44.752,3.992c3.24,0.49,4.703,2.754,8.793,2.398
		c1.467-0.928,0.554-4.243,3.992-3.195c-0.569,12.557,3.802,20.176,13.586,22.372c1.194,23.087,31.079,18.428,49.545,14.387
		c-1.265-4.909,5.055-3.712,6.395-7.992c-1.291-4.572-6.63-5.085-7.192-10.387c5.463,1.729,9.351,5.036,9.59,11.989
		c-0.355,2.844-3.237,3.154-4.797,4.793c15.263-1.302,36.37-10.556,31.966-28.767c-1.175-4.861-5.83-5.156-7.992-10.387
		c17.1,2.638,11.783,30.933-0.797,34.365c12.879-0.703,20.243-6.93,27.169-13.59c0.056-2.735-1.085-5.111,0-7.989
		c1.351-3.562,5.235-2.612,7.992-5.594c1.1-1.186,1.171-4.662,2.398-6.391c3.48-4.891,8.116-7.779,11.188-7.195
		c-3.622,5.972-10.967,8.213-11.989,16.782c-14.713,3.035-3.843,13.886,3.199,16.774c9.489,3.899,21.048,7.364,27.169,9.59
		c0.988-1.68,2.211-3.117,3.195-4.797c-2.137-1.055-4.677-1.71-3.996-5.594c3.914-0.711,3.753,2.642,7.992,1.601
		c2.9-3.764,4.543-8.774,6.391-13.586c0.471-3.136-4.385-0.939-3.195-4.793c5.594-0.157,5.007-10.836,4.793-19.177
		c-2.432-0.09-5.452,3.315-6.391,0c0.191-3.809,5.201-2.795,7.192-4.797c1.429-8.576,1.747-22.368-5.594-24.771
		c-0.988,1.942-0.677,5.186-3.195,5.59c-5.22-4.958,4.142-7.719,2.398-14.387c-0.037-2.627-3.416-1.908-3.195-4.793
		c1.519-11.158-6.844-19.222-11.989-26.372c-13.822-3.117-11.555,13.953-19.18,14.383c3.779-6.874,4.43-16.879,15.184-16.778
		c0.419-4.15-3.439-4.022-5.594-5.594c-6.455-7.398-11.82-15.88-22.376-19.177c0.58,2.915,6.047,9.957,0.801,11.188
		c-3.188-12.535-14.103-17.339-25.571-21.583c0.625,3.876,4.408,14.746-0.797,16.782c-2.485-3.734-0.385-11.716-3.195-16.782
		c-3.97-3.038-11.113-5.624-15.981-3.195c-0.921-2.006-3.345-2.514-4.793-3.992C256.679,85.713,252.316,83.479,243.583,83.131z
		 M316.308,230.176c-7.132,6.282-15.637,13.384-25.571,14.383c-2.054,0.21-4.206-1.785-6.395-1.598
		c-6.832,0.58-13.444,9.122-22.376,6.395c2.522,22.047,18.215,33.773,41.556,31.165c20.89-2.339,35.322-19.626,41.556-35.162
		C336.877,238.909,323.35,237.783,316.308,230.176z"/>
	<path style="fill:#E9C29C;" d="M267.56,83.131c1.448,1.482,3.873,1.987,4.793,3.992c4.872-2.425,12.015,0.161,15.981,3.195
		c2.814,5.066,0.715,13.048,3.195,16.782c5.209-2.036,1.426-12.905,0.797-16.782c11.472,4.243,22.387,9.048,25.571,21.583
		c5.246-1.231-0.221-8.273-0.801-11.188c10.559,3.297,15.921,11.779,22.376,19.177c2.155,1.572,6.013,1.444,5.594,5.594
		c-10.758-0.097-11.405,9.905-15.184,16.778c7.626-0.43,5.358-17.5,19.18-14.383c5.145,7.151,13.508,15.21,11.989,26.372
		c-0.221,2.885,3.162,2.166,3.195,4.793c1.744,6.664-7.618,9.429-2.398,14.387c2.522-0.404,2.211-3.652,3.195-5.59
		c7.341,2.406,7.023,16.194,5.594,24.771c-1.991,2.002-7.005,0.992-7.192,4.797c0.939,3.315,3.963-0.09,6.391,0
		c0.213,8.34,0.801,19.02-4.793,19.177c-1.19,3.854,3.667,1.658,3.195,4.793c-1.848,4.812-3.495,9.822-6.391,13.586
		c-4.236,1.04-4.079-2.312-7.992-1.601c-0.685,3.884,1.86,4.539,3.996,5.594c-0.984,1.68-2.211,3.117-3.195,4.797
		c-6.125-2.23-17.684-5.691-27.169-9.59c-7.035-2.885-17.904-13.736-3.188-16.774c1.022-8.569,8.367-10.814,11.989-16.782
		c-3.072-0.584-7.712,2.305-11.188,7.195c-1.231,1.729-1.298,5.205-2.398,6.391c-2.758,2.982-6.642,2.032-7.992,5.594
		c-1.085,2.877,0.056,5.25,0,7.989c-6.926,6.66-14.29,12.883-27.169,13.59c12.58-3.431,17.897-31.727,0.797-34.365
		c2.163,5.231,6.818,5.53,7.992,10.387c4.4,18.211-16.707,27.468-31.966,28.767c1.56-1.639,4.441-1.949,4.797-4.793
		c-0.239-6.952-4.127-10.26-9.59-11.989c0.561,5.302,5.905,5.818,7.192,10.387c-1.34,4.281-7.659,3.083-6.395,7.992
		c-18.469,4.041-48.351,8.7-49.545-14.387c-9.789-2.2-14.155-9.815-13.586-22.372c-3.439-1.044-2.526,2.268-3.992,3.195
		c-4.09,0.359-5.549-1.908-8.793-2.398c-9.732,7.248-36.43,5.182-44.752-3.992c-0.378-8.37,5.789-10.2,11.188-12.789
		c-4.692-4.254-10.997,2.537-12.786,6.395c-11.925-8.022-13.702-39.468-1.598-46.353c-2.245-7.944-0.21-18.245,9.59-16.782
		c0.225-2.088,0.269-3.996-2.398-3.195c4.973-12.344,10.615-24.015,22.376-29.568c3.85-0.385,1.964,4.958,4.793,5.594
		c3.645-1.463,0.879-4.404,3.195-7.195c5.77-6.485,18.982-14.316,27.173-8.789c2.249-0.812-0.221-3.394,0-4.797
		c11.555-6.241,35.431-11.465,44.752,0c0.849,3.525-1.579,6.178,0,7.992c9.089-2.877-0.21-14.499-2.398-15.184
		C252.316,83.479,256.679,85.713,267.56,83.131z M256.369,115.898c-17.231,0.438-30.305,31.667-5.594,33.564
		c1.04,5.725,6.406,11.023,11.985,9.59c-3.495-3.966-9.16-5.755-10.387-11.985c-23.39-1.519-9.934-28.842,6.395-28.767
		c-1.081-17.066,10.484-21.485,19.977-27.974c-1.141-0.191-1.347-1.317-2.398-1.598C266.909,95.004,255.59,99.401,256.369,115.898z
		 M203.628,97.515c2.533,4.393,8.108,5.744,8.789,11.989c14.017-2.567,27.45,0.943,34.365,7.996
		c-1.018-10.391-19.723-12.662-32.767-11.188C212.549,101.777,208.418,96.108,203.628,97.515z M290.737,118.297
		c7.345-3.573,13.033,3.345,17.579,2.398C306.538,116.111,292.926,110.282,290.737,118.297z M156.478,123.891
		c2.642,1.646,5.534-2.125,10.391-0.801c4.572,2.616,6.526,7.862,7.989,13.586c13.557-1.572,19.805,4.168,21.579,14.387
		c3.667-0.311,5.145-1.815,7.989-1.602c9.755,0.748,12.397,13.815,17.583,16.782c-1.171-9.306-9.658-22.2-23.977-18.383
		c0.322-5.381-3.368-6.758-4.793-10.387c4.479-5.137,16.479,0.311,19.977-2.395c-5.759-5.261-17.676-2.997-23.177,0.797
		c-3.267-2.062-7.94-2.717-13.586-2.398C176.886,123.419,163.138,114.716,156.478,123.891z M309.113,144.665
		c0.992,9.25-4.374,12.142-13.583,11.188c-0.849,8.153-9.983,14.009-18.383,9.59c-2.511,6.563-13.549,3.835-16.782,0
		c2.226,15.611-29.714,9.28-39.158,18.38c-7.42-7.764-24.673-5.691-27.173-18.38c-3.817-1.912-12.771-4.318-15.184,0.801
		c12.995-3.218,16.902,8.344,23.974,13.586c10.032-0.977,13.818,4.292,19.18,7.992c8.625-10.821,34.548-4.344,41.553-16.782
		c1.815,1.381,4.464,1.931,7.992,1.598c2.874-0.857,4.954-2.5,7.192-3.992c7.948,4.094,16.913-2.866,19.18-9.59
		c9.714,0.127,14.881-4.296,13.586-15.184c4.157-1.433,9.261-1.927,9.59-7.192c-8.958,7.869-23.891,4.232-27.173-6.395
		C291.815,139.142,301.233,143.165,309.113,144.665z M317.906,163.052c-6.657,12.52-17.788,20.569-32.763,24.771
		c6.17,4.475,11.375-2.312,18.38,0c2.717,3.147,1.848,9.875,3.996,13.586c7.963,0.64,22.002,4.161,21.575-3.992
		c-4.819,3.484-11.959,1.998-19.177,1.594c-2.163-2.361-1.34-7.716-2.398-11.184c-1.448-2.017-5.25-1.676-6.395-3.996
		c6.87-5.916,15.76-9.811,19.981-18.38c7.184-0.804,12.355-3.626,13.583-10.387c-0.168-0.894-0.887-1.246-1.598-1.601
		C330.714,159.34,326.34,163.221,317.906,163.052z M141.294,164.642c13.508-0.887,18.851,13.044,24.774,22.376
		c-4.075,1.253-8.587,2.065-9.59,6.391c3.738,1.351,6.63-4.367,11.989-3.992c7.128,4.06,15.947,6.428,19.18,14.387
		c2.732-2.904-2.776-7.547-1.598-8.793c6.541-0.546,9.987,5.811,14.383,4.793c-1.714-5.01-11.334-9.519-16.782-5.594
		c-4.292-4.236-7.899-2.724-11.989-5.594c-10.814-7.585-11.888-29.534-31.169-27.169
		C140.437,162.843,140.673,163.935,141.294,164.642z M205.226,207.8c3.615,1.388,4.419-2.05,7.992-2.402
		c9.313-0.906,14.597,5.13,15.184,15.188c8.565-2.69,16.868,1.036,19.977,6.391c5.362-6.537,17.59-2.597,22.376-0.797
		c-1.867-7.109-15.948-6.743-21.579-3.199c-4.146-3.981-11.053-7.169-18.38-5.59C231.373,204.758,212.186,196.242,205.226,207.8z
		 M349.071,210.195c2.679,2.649-0.067,10.724,3.195,12.786c2.189-2.496,0.516-5.755,1.598-7.989c3.888-1.257,8.977,2.69,8.789-1.601
		c-2.077-2.425-7.173-1.523-10.387-0.797c-0.445-5.152-2.982-8.206-7.989-8.793C343.766,208.047,348.476,207.067,349.071,210.195z
		 M256.369,241.364c-2.533-11.835-17.912-2.851-27.97-4.793c-7.603-1.478-6.799-6.855-13.586-9.59
		C215.415,244.799,245.136,234.127,256.369,241.364z"/>
	<g>
		<path style="fill:#D7AF8F;" d="M276.35,88.725c1.048,0.281,1.257,1.407,2.398,1.598c-9.493,6.485-21.059,10.907-19.977,27.974
			c-16.329-0.075-29.785,27.248-6.395,28.767c1.227,6.23,6.892,8.022,10.387,11.985c-5.579,1.437-10.945-3.862-11.985-9.59
			c-24.711-1.897-11.641-33.126,5.594-33.564C255.59,99.401,266.909,95.004,276.35,88.725z"/>
		<path style="fill:#D7AF8F;" d="M214.015,106.308c13.044-1.474,31.749,0.797,32.767,11.188
			c-6.915-7.053-20.348-10.559-34.365-7.996c-0.681-6.245-6.256-7.596-8.789-11.989C208.418,96.108,212.549,101.777,214.015,106.308
			z"/>
		<path style="fill:#D7AF8F;" d="M308.316,120.691c-4.546,0.947-10.234-5.972-17.579-2.398
			C292.926,110.282,306.538,116.111,308.316,120.691z"/>
		<path style="fill:#D7AF8F;" d="M176.455,133.477c5.646-0.318,10.32,0.337,13.586,2.398c5.5-3.794,17.418-6.058,23.177-0.797
			c-3.502,2.705-15.498-2.743-19.977,2.395c1.426,3.633,5.119,5.007,4.793,10.387c14.32-3.817,22.802,9.078,23.977,18.383
			c-5.186-2.967-7.828-16.034-17.583-16.782c-2.848-0.217-4.322,1.291-7.989,1.601c-1.774-10.215-8.022-15.959-21.579-14.387
			c-1.463-5.725-3.416-10.971-7.989-13.586c-4.853-1.325-7.749,2.447-10.391,0.801C163.138,114.716,176.886,123.419,176.455,133.477
			z"/>
		<path style="fill:#D7AF8F;" d="M293.932,130.282c3.278,10.627,18.215,14.264,27.173,6.395c-0.329,5.265-5.433,5.759-9.59,7.192
			c1.295,10.885-3.873,15.311-13.586,15.184c-2.268,6.728-11.233,13.684-19.18,9.59c-2.238,1.493-4.318,3.139-7.192,3.992
			c-3.525,0.333-6.178-0.217-7.992-1.598c-7.008,12.438-32.928,5.964-41.553,16.782c-5.362-3.697-9.149-8.965-19.18-7.992
			c-7.072-5.239-10.978-16.804-23.974-13.586c2.417-5.119,11.368-2.713,15.184-0.801c2.5,12.688,19.749,10.615,27.173,18.38
			c9.444-9.1,41.384-2.769,39.158-18.38c3.233,3.835,14.271,6.563,16.782,0c8.4,4.423,17.534-1.437,18.383-9.59
			c9.209,0.954,14.574-1.942,13.583-11.188C301.233,143.165,291.815,139.142,293.932,130.282z"/>
		<path style="fill:#D7AF8F;" d="M333.09,153.454c0.711,0.355,1.429,0.703,1.598,1.602c-1.227,6.765-6.398,9.586-13.583,10.387
			c-4.221,8.569-13.107,12.464-19.981,18.38c1.145,2.32,4.947,1.979,6.395,3.996c1.059,3.472,0.236,8.823,2.398,11.184
			c7.222,0.404,14.357,1.89,19.177-1.594c0.427,8.157-13.613,4.632-21.575,3.992c-2.148-3.712-1.28-10.44-3.996-13.586
			c-7.008-2.312-12.209,4.475-18.38,0c14.975-4.202,26.11-12.251,32.763-24.771C326.34,163.221,330.714,159.34,333.09,153.454z"/>
		<path style="fill:#D7AF8F;" d="M140.493,161.451c19.281-2.365,20.355,19.581,31.169,27.169c4.09,2.874,7.693,1.358,11.989,5.594
			c5.448-3.925,15.068,0.584,16.782,5.594c-4.397,1.014-7.843-5.34-14.383-4.793c-1.179,1.246,4.333,5.886,1.598,8.793
			c-3.233-7.959-12.052-10.327-19.18-14.387c-5.355-0.374-8.251,5.347-11.989,3.992c1.003-4.326,5.515-5.137,9.59-6.391
			c-5.923-9.332-11.263-23.266-24.774-22.376C140.673,163.935,140.437,162.843,140.493,161.451z"/>
		<path style="fill:#D7AF8F;" d="M230.797,217.39c7.326-1.579,14.234,1.609,18.38,5.59c5.628-3.54,19.712-3.91,21.579,3.199
			c-4.786-1.8-17.018-5.74-22.376,0.797c-3.113-5.354-11.412-9.081-19.977-6.391c-0.584-10.058-5.867-16.093-15.184-15.188
			c-3.573,0.352-4.374,3.79-7.992,2.402C212.186,196.242,231.373,204.758,230.797,217.39z"/>
		<path style="fill:#D7AF8F;" d="M344.278,203.804c5.007,0.584,7.547,3.641,7.989,8.793c3.214-0.726,8.314-1.631,10.387,0.797
			c0.187,4.288-4.902,0.344-8.789,1.601c-1.081,2.234,0.591,5.493-1.598,7.989c-3.263-2.062-0.516-10.137-3.195-12.786
			C348.476,207.067,343.766,208.047,344.278,203.804z"/>
		<path style="fill:#D7AF8F;" d="M214.816,226.977c6.784,2.735,5.983,8.116,13.586,9.59c10.058,1.946,25.437-7.042,27.97,4.793
			C245.136,234.127,215.415,244.799,214.816,226.977z"/>
	</g>
	<path style="fill:#E9C29C;" d="M345.079,245.36c-6.234,15.536-20.666,32.823-41.556,35.162
		c-23.341,2.608-39.034-9.122-41.556-31.165c8.932,2.728,15.543-5.815,22.376-6.395c2.189-0.187,4.34,1.804,6.395,1.598
		c9.938-0.999,18.443-8.101,25.571-14.383C323.35,237.783,336.877,238.909,345.079,245.36z"/>
	<path style="fill:#BEBEBE;" d="M353.868,385.213c-6.784-15.962-19.745-44.052-24.774-66.331
		c-5.991-26.533,26.136-57.904,37.564-73.522c14.2-19.412,19.697-52.587,11.989-83.91c-6.574-26.705-23.521-44.479-44.752-59.139
		C309.184,85.249,276.885,71.27,234,74.338c-18.66,1.336-40.939,8.056-56.74,15.188c-28.688,12.939-53.137,37.5-57.537,73.522
		c-0.954,7.805,1.317,16.138,0.801,25.568c-1.452,26.548-22.623,35.626-35.162,54.342c7.289,11.835,35.3,18.234,18.38,37.56
		c2.354,4.572,11.038,2.814,13.586,7.192c0.576,6.44-7.207,4.513-8.789,8.793c4.146,6.174,7.865,5.994,9.59,11.989
		c4.827,16.778-13.732,37.163,11.188,40.756c22.208,3.199,46.791-9.152,70.327-4.793c6.245,4.718,9.078,13.796,11.188,23.977
		c1.852,8.932,6.556,19.82,3.195,26.368c-8.142-1.542-8.146-12.883-9.59-20.778c-1.661-9.081-3.121-17.257-7.989-22.372
		c-31.584-4.258-59.176,15.121-80.714,0.801c-3.704-2.466-7.278-8.071-7.992-11.989c-1.706-9.332,5.063-17.388,3.195-27.97
		c-1.411-8.015-15.281-11.035-7.192-22.376c-10.75-2.26-6.941-17.036-1.598-22.376c-5.92-10.956-23.442-9.197-23.974-23.974
		c-0.4-11.124,11.349-15.85,16.782-21.583c6.032-6.35,15.981-20.019,17.583-28.767c1.673-9.141-1.104-18.032-0.801-24.771
		c1.804-39.712,26.754-67.012,55.943-82.312c16.468-8.636,37.669-15.046,55.94-18.38c45.212-8.258,92.647,11.079,122.27,33.564
		c28.396,21.553,46.387,52.741,43.955,96.699c-1.515,27.341-9.459,42.365-23.173,59.139c-6.088,7.442-12.202,14.821-17.583,23.173
		c-5.358,8.322-13.923,21.747-12.786,34.365c1.063,11.775,7.237,24.744,11.188,35.962c3.963,11.255,10.844,21.571,11.188,34.365
		h-4.812V385.213z"/>
</g>
</svg>